<?xml version="1.0" encoding="utf-8"?>
<!-- Generator: Adobe Illustrator 27.8.1, SVG Export Plug-In . SVG Version: 6.00 Build 0)  -->
<svg version="1.1" id="Layer_2" xmlns="http://www.w3.org/2000/svg" xmlns:xlink="http://www.w3.org/1999/xlink" x="0px" y="0px"
	 viewBox="0 0 432 432" style="enable-background:new 0 0 432 432;" xml:space="preserve">
<style type="text/css">
	.st0{fill:#BCBEC0;}
</style>
<path class="st0" d="M352,194.5v41.3c0,8.5-7,15.5-15.6,15.4h-35l27.4,27.4c6,6,6,15.9,0,21.9l-29.2,29.2c-6,6-15.9,6-21.9,0
	l-25.5-25.5v33.4c0,8.5-7,15.5-15.5,15.5h-41.3c-8.5,0-15.5-7-15.5-15.5v-33.2l-25.5,25.5c-6,6-15.9,6-21.9,0l-29.2-29.2
	c-6-6-6-15.9,0-21.9l27.4-27.4h-35c-8.5,0-15.5-7-15.5-15.5v-41.3c0-8.5,7-15.5,15.5-15.5h33.2l-25.5-25.5c-6-6-6-15.9,0-21.9
	l29.2-29.2c6-6,15.9-6,21.9,0l25.5,25.5V94.5c0-8.5,7-15.5,15.5-15.5h41.3c8.5,0,15.5,7,15.5,15.5v33.4l25.5-25.5c6-6,15.9-6,21.9,0
	l29.2,29.2c6,6,6,15.9,0,21.9L303.2,179h33.4C345.1,179,352,186,352,194.5z M269.5,216c0-29.5-23.9-53.5-53.5-53.5
	s-53.5,23.9-53.5,53.5s23.9,53.5,53.5,53.5S269.5,245.5,269.5,216z"/>
</svg>
